<mxfile host="app.diagrams.net" agent="Mozilla/5.0 (X11; Linux x86_64; rv:132.0) Gecko/20100101 Firefox/132.0" version="24.7.17">
  <diagram name="Page-1" id="RquV5_aTfqHUwoLyfHSl">
    <mxGraphModel dx="1411" dy="902" grid="1" gridSize="10" guides="1" tooltips="1" connect="1" arrows="1" fold="1" page="1" pageScale="1" pageWidth="1100" pageHeight="1700" math="0" shadow="0">
      <root>
        <mxCell id="0" />
        <mxCell id="1" parent="0" />
        <mxCell id="32dZPm41bgBuHQjWJqPg-13" value="&lt;font style=&quot;font-size: 24px;&quot;&gt;&lt;b&gt;BETTER CLUB MANAGEMENT SYSTEM&lt;/b&gt;&lt;/font&gt;" style="text;html=1;align=center;verticalAlign=middle;whiteSpace=wrap;rounded=0;" vertex="1" parent="1">
          <mxGeometry x="315" y="30" width="470" height="30" as="geometry" />
        </mxCell>
        <mxCell id="32dZPm41bgBuHQjWJqPg-14" value="" style="rounded=0;whiteSpace=wrap;html=1;" vertex="1" parent="1">
          <mxGeometry x="50" y="150" width="280" height="200" as="geometry" />
        </mxCell>
        <mxCell id="32dZPm41bgBuHQjWJqPg-15" value="" style="rounded=0;whiteSpace=wrap;html=1;" vertex="1" parent="1">
          <mxGeometry x="50" y="150" width="280" height="20" as="geometry" />
        </mxCell>
        <mxCell id="32dZPm41bgBuHQjWJqPg-16" value="&lt;font style=&quot;font-size: 10px;&quot;&gt;bcms&lt;/font&gt;" style="text;html=1;align=center;verticalAlign=middle;whiteSpace=wrap;rounded=0;" vertex="1" parent="1">
          <mxGeometry x="40" y="145" width="60" height="30" as="geometry" />
        </mxCell>
        <mxCell id="32dZPm41bgBuHQjWJqPg-38" style="edgeStyle=orthogonalEdgeStyle;rounded=0;orthogonalLoop=1;jettySize=auto;html=1;strokeWidth=2;" edge="1" parent="1" source="32dZPm41bgBuHQjWJqPg-31" target="32dZPm41bgBuHQjWJqPg-33">
          <mxGeometry relative="1" as="geometry" />
        </mxCell>
        <mxCell id="32dZPm41bgBuHQjWJqPg-17" value="&lt;font style=&quot;font-size: 10px;&quot;&gt;user details&lt;/font&gt;" style="text;html=1;align=center;verticalAlign=middle;whiteSpace=wrap;rounded=0;" vertex="1" parent="1">
          <mxGeometry x="240" y="145" width="100" height="30" as="geometry" />
        </mxCell>
        <mxCell id="32dZPm41bgBuHQjWJqPg-18" value="" style="rounded=0;whiteSpace=wrap;html=1;" vertex="1" parent="1">
          <mxGeometry x="50" y="170" width="160" height="90" as="geometry" />
        </mxCell>
        <mxCell id="32dZPm41bgBuHQjWJqPg-19" value="" style="rounded=0;whiteSpace=wrap;html=1;" vertex="1" parent="1">
          <mxGeometry x="210" y="170" width="120" height="180" as="geometry" />
        </mxCell>
        <mxCell id="32dZPm41bgBuHQjWJqPg-20" value="EVENT/OVERALL CALENDAR" style="text;html=1;align=center;verticalAlign=middle;whiteSpace=wrap;rounded=0;" vertex="1" parent="1">
          <mxGeometry x="60" y="200" width="140" height="30" as="geometry" />
        </mxCell>
        <mxCell id="32dZPm41bgBuHQjWJqPg-21" value="" style="rounded=0;whiteSpace=wrap;html=1;" vertex="1" parent="1">
          <mxGeometry x="210" y="290" width="120" height="60" as="geometry" />
        </mxCell>
        <mxCell id="32dZPm41bgBuHQjWJqPg-22" value="&lt;font style=&quot;font-size: 10px;&quot;&gt;ON GOING TASKS&lt;/font&gt;" style="text;html=1;align=center;verticalAlign=middle;whiteSpace=wrap;rounded=0;" vertex="1" parent="1">
          <mxGeometry x="210" y="305" width="130" height="30" as="geometry" />
        </mxCell>
        <mxCell id="32dZPm41bgBuHQjWJqPg-24" value="" style="rounded=0;whiteSpace=wrap;html=1;" vertex="1" parent="1">
          <mxGeometry x="210" y="170" width="120" height="40" as="geometry" />
        </mxCell>
        <mxCell id="32dZPm41bgBuHQjWJqPg-25" value="" style="rounded=0;whiteSpace=wrap;html=1;" vertex="1" parent="1">
          <mxGeometry x="210" y="210" width="120" height="80" as="geometry" />
        </mxCell>
        <mxCell id="32dZPm41bgBuHQjWJqPg-26" value="&lt;font style=&quot;font-size: 10px;&quot;&gt;TASK METRICS&lt;/font&gt;" style="text;html=1;align=center;verticalAlign=middle;whiteSpace=wrap;rounded=0;" vertex="1" parent="1">
          <mxGeometry x="215" y="175" width="110" height="30" as="geometry" />
        </mxCell>
        <mxCell id="32dZPm41bgBuHQjWJqPg-27" value="&lt;font style=&quot;font-size: 10px;&quot;&gt;ASSIGNED TASKS/TASKS UP FOR GRABS&lt;/font&gt;" style="text;html=1;align=center;verticalAlign=middle;whiteSpace=wrap;rounded=0;" vertex="1" parent="1">
          <mxGeometry x="215" y="235" width="110" height="30" as="geometry" />
        </mxCell>
        <mxCell id="32dZPm41bgBuHQjWJqPg-28" value="" style="rounded=0;whiteSpace=wrap;html=1;" vertex="1" parent="1">
          <mxGeometry x="50" y="260" width="80" height="90" as="geometry" />
        </mxCell>
        <mxCell id="32dZPm41bgBuHQjWJqPg-29" value="&lt;font style=&quot;font-size: 10px;&quot;&gt;TEAM DETAILS&lt;/font&gt;" style="text;html=1;align=center;verticalAlign=middle;whiteSpace=wrap;rounded=0;" vertex="1" parent="1">
          <mxGeometry x="140" y="290" width="60" height="30" as="geometry" />
        </mxCell>
        <mxCell id="32dZPm41bgBuHQjWJqPg-30" value="&lt;div&gt;&lt;font style=&quot;font-size: 10px;&quot;&gt;UPCOMING&lt;/font&gt;&lt;/div&gt;&lt;div&gt;&lt;font style=&quot;font-size: 10px;&quot;&gt;/PLANNED EVENTS&lt;/font&gt;&lt;/div&gt;" style="text;html=1;align=center;verticalAlign=middle;whiteSpace=wrap;rounded=0;" vertex="1" parent="1">
          <mxGeometry x="60" y="290" width="60" height="30" as="geometry" />
        </mxCell>
        <mxCell id="32dZPm41bgBuHQjWJqPg-31" value="&lt;font style=&quot;font-size: 18px;&quot;&gt;&lt;b&gt;BASE VIEW&lt;/b&gt;&lt;/font&gt;" style="text;html=1;align=center;verticalAlign=middle;whiteSpace=wrap;rounded=0;" vertex="1" parent="1">
          <mxGeometry x="95" y="120" width="190" height="30" as="geometry" />
        </mxCell>
        <mxCell id="32dZPm41bgBuHQjWJqPg-33" value="&lt;div&gt;&lt;b&gt;&lt;font style=&quot;font-size: 14px;&quot;&gt;FEATURES&lt;/font&gt;&lt;/b&gt;&lt;/div&gt;" style="swimlane;fontStyle=0;childLayout=stackLayout;horizontal=1;startSize=30;horizontalStack=0;resizeParent=1;resizeParentMax=0;resizeLast=0;collapsible=1;marginBottom=0;whiteSpace=wrap;html=1;" vertex="1" parent="1">
          <mxGeometry x="400" y="120" width="120" height="120" as="geometry">
            <mxRectangle x="430" y="90" width="100" height="30" as="alternateBounds" />
          </mxGeometry>
        </mxCell>
        <mxCell id="32dZPm41bgBuHQjWJqPg-34" value="[ ] TASKS" style="text;strokeColor=none;fillColor=none;align=left;verticalAlign=middle;spacingLeft=4;spacingRight=4;overflow=hidden;points=[[0,0.5],[1,0.5]];portConstraint=eastwest;rotatable=0;whiteSpace=wrap;html=1;" vertex="1" parent="32dZPm41bgBuHQjWJqPg-33">
          <mxGeometry y="30" width="120" height="30" as="geometry" />
        </mxCell>
        <mxCell id="32dZPm41bgBuHQjWJqPg-35" value="[ ] EVENTS" style="text;strokeColor=none;fillColor=none;align=left;verticalAlign=middle;spacingLeft=4;spacingRight=4;overflow=hidden;points=[[0,0.5],[1,0.5]];portConstraint=eastwest;rotatable=0;whiteSpace=wrap;html=1;" vertex="1" parent="32dZPm41bgBuHQjWJqPg-33">
          <mxGeometry y="60" width="120" height="30" as="geometry" />
        </mxCell>
        <mxCell id="32dZPm41bgBuHQjWJqPg-36" value="[ ] TEAMS" style="text;strokeColor=none;fillColor=none;align=left;verticalAlign=middle;spacingLeft=4;spacingRight=4;overflow=hidden;points=[[0,0.5],[1,0.5]];portConstraint=eastwest;rotatable=0;whiteSpace=wrap;html=1;" vertex="1" parent="32dZPm41bgBuHQjWJqPg-33">
          <mxGeometry y="90" width="120" height="30" as="geometry" />
        </mxCell>
        <mxCell id="32dZPm41bgBuHQjWJqPg-43" value="" style="rounded=0;whiteSpace=wrap;html=1;" vertex="1" parent="1">
          <mxGeometry x="680" y="280" width="400" height="320" as="geometry" />
        </mxCell>
        <mxCell id="32dZPm41bgBuHQjWJqPg-44" value="" style="rounded=0;whiteSpace=wrap;html=1;" vertex="1" parent="1">
          <mxGeometry x="600" y="280" width="480" height="40" as="geometry" />
        </mxCell>
        <mxCell id="32dZPm41bgBuHQjWJqPg-45" value="&lt;b style=&quot;font-size: 15px;&quot;&gt;PERMISSION MANAGER&lt;br&gt;&lt;/b&gt;" style="text;html=1;align=center;verticalAlign=middle;whiteSpace=wrap;rounded=0;" vertex="1" parent="1">
          <mxGeometry x="670" y="280" width="410" height="40" as="geometry" />
        </mxCell>
        <mxCell id="32dZPm41bgBuHQjWJqPg-60" value="" style="edgeStyle=orthogonalEdgeStyle;rounded=0;orthogonalLoop=1;jettySize=auto;html=1;" edge="1" parent="1" source="32dZPm41bgBuHQjWJqPg-55" target="32dZPm41bgBuHQjWJqPg-45">
          <mxGeometry relative="1" as="geometry" />
        </mxCell>
        <mxCell id="32dZPm41bgBuHQjWJqPg-55" value="" style="rounded=0;whiteSpace=wrap;html=1;" vertex="1" parent="1">
          <mxGeometry x="600" y="340" width="160" height="260" as="geometry" />
        </mxCell>
        <mxCell id="32dZPm41bgBuHQjWJqPg-56" value="" style="rounded=0;whiteSpace=wrap;html=1;" vertex="1" parent="1">
          <mxGeometry x="760" y="320" width="80" height="280" as="geometry" />
        </mxCell>
        <mxCell id="32dZPm41bgBuHQjWJqPg-57" value="" style="rounded=0;whiteSpace=wrap;html=1;" vertex="1" parent="1">
          <mxGeometry x="840" y="320" width="80" height="280" as="geometry" />
        </mxCell>
        <mxCell id="32dZPm41bgBuHQjWJqPg-58" value="" style="rounded=0;whiteSpace=wrap;html=1;" vertex="1" parent="1">
          <mxGeometry x="920" y="320" width="80" height="280" as="geometry" />
        </mxCell>
        <mxCell id="32dZPm41bgBuHQjWJqPg-59" value="" style="rounded=0;whiteSpace=wrap;html=1;" vertex="1" parent="1">
          <mxGeometry x="1000" y="320" width="80" height="280" as="geometry" />
        </mxCell>
        <mxCell id="32dZPm41bgBuHQjWJqPg-61" value="" style="rounded=0;whiteSpace=wrap;html=1;" vertex="1" parent="1">
          <mxGeometry x="600" y="320" width="480" height="40" as="geometry" />
        </mxCell>
        <mxCell id="32dZPm41bgBuHQjWJqPg-62" value="" style="rounded=0;whiteSpace=wrap;html=1;" vertex="1" parent="1">
          <mxGeometry x="760" y="320" width="80" height="40" as="geometry" />
        </mxCell>
        <mxCell id="32dZPm41bgBuHQjWJqPg-63" value="" style="rounded=0;whiteSpace=wrap;html=1;" vertex="1" parent="1">
          <mxGeometry x="840" y="320" width="80" height="40" as="geometry" />
        </mxCell>
        <mxCell id="32dZPm41bgBuHQjWJqPg-64" value="" style="rounded=0;whiteSpace=wrap;html=1;" vertex="1" parent="1">
          <mxGeometry x="920" y="320" width="80" height="40" as="geometry" />
        </mxCell>
        <mxCell id="32dZPm41bgBuHQjWJqPg-66" value="member" style="text;html=1;align=center;verticalAlign=middle;whiteSpace=wrap;rounded=0;" vertex="1" parent="1">
          <mxGeometry x="760" y="320" width="80" height="40" as="geometry" />
        </mxCell>
        <mxCell id="32dZPm41bgBuHQjWJqPg-67" value="jt dept" style="text;html=1;align=center;verticalAlign=middle;whiteSpace=wrap;rounded=0;" vertex="1" parent="1">
          <mxGeometry x="840" y="320" width="80" height="40" as="geometry" />
        </mxCell>
        <mxCell id="32dZPm41bgBuHQjWJqPg-68" value="&lt;div&gt;dept&lt;/div&gt;" style="text;html=1;align=center;verticalAlign=middle;whiteSpace=wrap;rounded=0;" vertex="1" parent="1">
          <mxGeometry x="920" y="320" width="80" height="40" as="geometry" />
        </mxCell>
        <mxCell id="32dZPm41bgBuHQjWJqPg-69" value="board" style="text;html=1;align=center;verticalAlign=middle;whiteSpace=wrap;rounded=0;" vertex="1" parent="1">
          <mxGeometry x="1000" y="320" width="80" height="40" as="geometry" />
        </mxCell>
        <mxCell id="32dZPm41bgBuHQjWJqPg-70" value="" style="endArrow=none;html=1;rounded=0;entryX=0;entryY=0;entryDx=0;entryDy=0;exitX=0;exitY=1;exitDx=0;exitDy=0;" edge="1" parent="1" source="32dZPm41bgBuHQjWJqPg-61" target="32dZPm41bgBuHQjWJqPg-66">
          <mxGeometry width="50" height="50" relative="1" as="geometry">
            <mxPoint x="680" y="350" as="sourcePoint" />
            <mxPoint x="770" y="330" as="targetPoint" />
          </mxGeometry>
        </mxCell>
        <mxCell id="32dZPm41bgBuHQjWJqPg-71" value="" style="rounded=0;whiteSpace=wrap;html=1;" vertex="1" parent="1">
          <mxGeometry x="700" y="360" width="60" height="240" as="geometry" />
        </mxCell>
        <mxCell id="32dZPm41bgBuHQjWJqPg-72" value="" style="rounded=0;whiteSpace=wrap;html=1;" vertex="1" parent="1">
          <mxGeometry x="700" y="360" width="60" height="20" as="geometry" />
        </mxCell>
        <mxCell id="32dZPm41bgBuHQjWJqPg-74" value="" style="rounded=0;whiteSpace=wrap;html=1;" vertex="1" parent="1">
          <mxGeometry x="700" y="380" width="60" height="20" as="geometry" />
        </mxCell>
        <mxCell id="32dZPm41bgBuHQjWJqPg-75" value="" style="rounded=0;whiteSpace=wrap;html=1;" vertex="1" parent="1">
          <mxGeometry x="700" y="400" width="60" height="20" as="geometry" />
        </mxCell>
        <mxCell id="32dZPm41bgBuHQjWJqPg-76" value="" style="rounded=0;whiteSpace=wrap;html=1;" vertex="1" parent="1">
          <mxGeometry x="700" y="420" width="60" height="20" as="geometry" />
        </mxCell>
        <mxCell id="32dZPm41bgBuHQjWJqPg-78" value="" style="rounded=0;whiteSpace=wrap;html=1;" vertex="1" parent="1">
          <mxGeometry x="600" y="360" width="100" height="80" as="geometry" />
        </mxCell>
        <mxCell id="32dZPm41bgBuHQjWJqPg-79" value="" style="rounded=0;whiteSpace=wrap;html=1;" vertex="1" parent="1">
          <mxGeometry x="700" y="440" width="60" height="20" as="geometry" />
        </mxCell>
        <mxCell id="32dZPm41bgBuHQjWJqPg-80" value="" style="rounded=0;whiteSpace=wrap;html=1;" vertex="1" parent="1">
          <mxGeometry x="700" y="460" width="60" height="20" as="geometry" />
        </mxCell>
        <mxCell id="32dZPm41bgBuHQjWJqPg-81" value="" style="rounded=0;whiteSpace=wrap;html=1;" vertex="1" parent="1">
          <mxGeometry x="700" y="480" width="60" height="20" as="geometry" />
        </mxCell>
        <mxCell id="32dZPm41bgBuHQjWJqPg-82" value="" style="rounded=0;whiteSpace=wrap;html=1;" vertex="1" parent="1">
          <mxGeometry x="700" y="500" width="60" height="20" as="geometry" />
        </mxCell>
        <mxCell id="32dZPm41bgBuHQjWJqPg-83" value="" style="rounded=0;whiteSpace=wrap;html=1;" vertex="1" parent="1">
          <mxGeometry x="600" y="440" width="100" height="80" as="geometry" />
        </mxCell>
        <mxCell id="32dZPm41bgBuHQjWJqPg-84" value="" style="rounded=0;whiteSpace=wrap;html=1;" vertex="1" parent="1">
          <mxGeometry x="700" y="520" width="60" height="20" as="geometry" />
        </mxCell>
        <mxCell id="32dZPm41bgBuHQjWJqPg-85" value="" style="rounded=0;whiteSpace=wrap;html=1;" vertex="1" parent="1">
          <mxGeometry x="700" y="540" width="60" height="20" as="geometry" />
        </mxCell>
        <mxCell id="32dZPm41bgBuHQjWJqPg-86" value="" style="rounded=0;whiteSpace=wrap;html=1;" vertex="1" parent="1">
          <mxGeometry x="700" y="560" width="60" height="20" as="geometry" />
        </mxCell>
        <mxCell id="32dZPm41bgBuHQjWJqPg-87" value="" style="rounded=0;whiteSpace=wrap;html=1;" vertex="1" parent="1">
          <mxGeometry x="700" y="580" width="60" height="20" as="geometry" />
        </mxCell>
        <mxCell id="32dZPm41bgBuHQjWJqPg-88" value="" style="rounded=0;whiteSpace=wrap;html=1;" vertex="1" parent="1">
          <mxGeometry x="600" y="520" width="100" height="80" as="geometry" />
        </mxCell>
        <mxCell id="32dZPm41bgBuHQjWJqPg-94" value="&lt;font style=&quot;font-size: 10px;&quot;&gt;create&lt;/font&gt;" style="text;html=1;align=center;verticalAlign=middle;whiteSpace=wrap;rounded=0;" vertex="1" parent="1">
          <mxGeometry x="700" y="360" width="60" height="20" as="geometry" />
        </mxCell>
        <mxCell id="32dZPm41bgBuHQjWJqPg-95" value="&lt;font style=&quot;font-size: 10px;&quot;&gt;read&lt;/font&gt;" style="text;html=1;align=center;verticalAlign=middle;whiteSpace=wrap;rounded=0;" vertex="1" parent="1">
          <mxGeometry x="700" y="380" width="60" height="20" as="geometry" />
        </mxCell>
        <mxCell id="32dZPm41bgBuHQjWJqPg-96" value="&lt;font style=&quot;font-size: 10px;&quot;&gt;update&lt;/font&gt;" style="text;html=1;align=center;verticalAlign=middle;whiteSpace=wrap;rounded=0;" vertex="1" parent="1">
          <mxGeometry x="700" y="400" width="60" height="20" as="geometry" />
        </mxCell>
        <mxCell id="32dZPm41bgBuHQjWJqPg-97" value="&lt;font style=&quot;font-size: 10px;&quot;&gt;delete&lt;/font&gt;" style="text;html=1;align=center;verticalAlign=middle;whiteSpace=wrap;rounded=0;" vertex="1" parent="1">
          <mxGeometry x="700" y="420" width="60" height="20" as="geometry" />
        </mxCell>
        <mxCell id="32dZPm41bgBuHQjWJqPg-98" value="&lt;font style=&quot;font-size: 10px;&quot;&gt;create&lt;/font&gt;" style="text;html=1;align=center;verticalAlign=middle;whiteSpace=wrap;rounded=0;" vertex="1" parent="1">
          <mxGeometry x="700" y="440" width="60" height="20" as="geometry" />
        </mxCell>
        <mxCell id="32dZPm41bgBuHQjWJqPg-99" value="&lt;font style=&quot;font-size: 10px;&quot;&gt;read&lt;/font&gt;" style="text;html=1;align=center;verticalAlign=middle;whiteSpace=wrap;rounded=0;" vertex="1" parent="1">
          <mxGeometry x="700" y="460" width="60" height="20" as="geometry" />
        </mxCell>
        <mxCell id="32dZPm41bgBuHQjWJqPg-100" value="&lt;font style=&quot;font-size: 10px;&quot;&gt;update&lt;/font&gt;" style="text;html=1;align=center;verticalAlign=middle;whiteSpace=wrap;rounded=0;" vertex="1" parent="1">
          <mxGeometry x="700" y="480" width="60" height="20" as="geometry" />
        </mxCell>
        <mxCell id="32dZPm41bgBuHQjWJqPg-101" value="&lt;font style=&quot;font-size: 10px;&quot;&gt;delete&lt;/font&gt;" style="text;html=1;align=center;verticalAlign=middle;whiteSpace=wrap;rounded=0;" vertex="1" parent="1">
          <mxGeometry x="700" y="500" width="60" height="20" as="geometry" />
        </mxCell>
        <mxCell id="32dZPm41bgBuHQjWJqPg-102" value="&lt;font style=&quot;font-size: 10px;&quot;&gt;create&lt;/font&gt;" style="text;html=1;align=center;verticalAlign=middle;whiteSpace=wrap;rounded=0;" vertex="1" parent="1">
          <mxGeometry x="700" y="520" width="60" height="20" as="geometry" />
        </mxCell>
        <mxCell id="32dZPm41bgBuHQjWJqPg-103" value="&lt;font style=&quot;font-size: 10px;&quot;&gt;read&lt;/font&gt;" style="text;html=1;align=center;verticalAlign=middle;whiteSpace=wrap;rounded=0;" vertex="1" parent="1">
          <mxGeometry x="700" y="540" width="60" height="20" as="geometry" />
        </mxCell>
        <mxCell id="32dZPm41bgBuHQjWJqPg-104" value="&lt;font style=&quot;font-size: 10px;&quot;&gt;update&lt;/font&gt;" style="text;html=1;align=center;verticalAlign=middle;whiteSpace=wrap;rounded=0;" vertex="1" parent="1">
          <mxGeometry x="700" y="560" width="60" height="20" as="geometry" />
        </mxCell>
        <mxCell id="32dZPm41bgBuHQjWJqPg-105" value="&lt;font style=&quot;font-size: 10px;&quot;&gt;delete&lt;/font&gt;" style="text;html=1;align=center;verticalAlign=middle;whiteSpace=wrap;rounded=0;" vertex="1" parent="1">
          <mxGeometry x="700" y="580" width="60" height="20" as="geometry" />
        </mxCell>
        <mxCell id="32dZPm41bgBuHQjWJqPg-110" value="TASKS" style="text;html=1;align=center;verticalAlign=middle;whiteSpace=wrap;rounded=0;" vertex="1" parent="1">
          <mxGeometry x="600" y="360" width="100" height="80" as="geometry" />
        </mxCell>
        <mxCell id="32dZPm41bgBuHQjWJqPg-115" value="EVENTS" style="text;html=1;align=center;verticalAlign=middle;whiteSpace=wrap;rounded=0;" vertex="1" parent="1">
          <mxGeometry x="600" y="440" width="100" height="80" as="geometry" />
        </mxCell>
        <mxCell id="32dZPm41bgBuHQjWJqPg-117" value="TEAMS" style="text;html=1;align=center;verticalAlign=middle;whiteSpace=wrap;rounded=0;" vertex="1" parent="1">
          <mxGeometry x="600" y="520" width="100" height="80" as="geometry" />
        </mxCell>
        <mxCell id="32dZPm41bgBuHQjWJqPg-123" value="" style="line;strokeWidth=1;html=1;fontColor=none;noLabel=1;labelBackgroundColor=none;strokeColor=#CCCCCC;" vertex="1" parent="1">
          <mxGeometry x="760" y="370" width="320" height="20" as="geometry" />
        </mxCell>
        <mxCell id="32dZPm41bgBuHQjWJqPg-124" value="" style="line;strokeWidth=1;html=1;fontColor=none;noLabel=1;labelBackgroundColor=none;strokeColor=#CCCCCC;" vertex="1" parent="1">
          <mxGeometry x="760" y="390" width="320" height="20" as="geometry" />
        </mxCell>
        <mxCell id="32dZPm41bgBuHQjWJqPg-125" value="" style="line;strokeWidth=1;html=1;fontColor=none;noLabel=1;labelBackgroundColor=none;strokeColor=#CCCCCC;" vertex="1" parent="1">
          <mxGeometry x="760" y="410" width="320" height="20" as="geometry" />
        </mxCell>
        <mxCell id="32dZPm41bgBuHQjWJqPg-127" value="" style="line;strokeWidth=1;html=1;fontColor=none;noLabel=1;labelBackgroundColor=none;strokeColor=#CCCCCC;" vertex="1" parent="1">
          <mxGeometry x="760" y="430" width="320" height="20" as="geometry" />
        </mxCell>
        <mxCell id="32dZPm41bgBuHQjWJqPg-132" value="" style="line;strokeWidth=1;html=1;fontColor=none;noLabel=1;labelBackgroundColor=none;strokeColor=#CCCCCC;" vertex="1" parent="1">
          <mxGeometry x="760" y="450" width="320" height="20" as="geometry" />
        </mxCell>
        <mxCell id="32dZPm41bgBuHQjWJqPg-133" value="" style="line;strokeWidth=1;html=1;fontColor=none;noLabel=1;labelBackgroundColor=none;strokeColor=#CCCCCC;" vertex="1" parent="1">
          <mxGeometry x="760" y="470" width="320" height="20" as="geometry" />
        </mxCell>
        <mxCell id="32dZPm41bgBuHQjWJqPg-134" value="" style="line;strokeWidth=1;html=1;fontColor=none;noLabel=1;labelBackgroundColor=none;strokeColor=#CCCCCC;" vertex="1" parent="1">
          <mxGeometry x="760" y="490" width="320" height="20" as="geometry" />
        </mxCell>
        <mxCell id="32dZPm41bgBuHQjWJqPg-135" value="" style="line;strokeWidth=1;html=1;fontColor=none;noLabel=1;labelBackgroundColor=none;strokeColor=#CCCCCC;" vertex="1" parent="1">
          <mxGeometry x="760" y="510" width="320" height="20" as="geometry" />
        </mxCell>
        <mxCell id="32dZPm41bgBuHQjWJqPg-136" value="" style="line;strokeWidth=1;html=1;fontColor=none;noLabel=1;labelBackgroundColor=none;strokeColor=#CCCCCC;" vertex="1" parent="1">
          <mxGeometry x="760" y="530" width="320" height="20" as="geometry" />
        </mxCell>
        <mxCell id="32dZPm41bgBuHQjWJqPg-137" value="" style="line;strokeWidth=1;html=1;fontColor=none;noLabel=1;labelBackgroundColor=none;strokeColor=#CCCCCC;" vertex="1" parent="1">
          <mxGeometry x="760" y="550" width="320" height="20" as="geometry" />
        </mxCell>
        <mxCell id="32dZPm41bgBuHQjWJqPg-138" value="" style="line;strokeWidth=1;html=1;fontColor=none;noLabel=1;labelBackgroundColor=none;strokeColor=#CCCCCC;" vertex="1" parent="1">
          <mxGeometry x="760" y="570" width="320" height="20" as="geometry" />
        </mxCell>
        <mxCell id="32dZPm41bgBuHQjWJqPg-157" value="&lt;div&gt;&lt;b&gt;o&lt;/b&gt;&lt;/div&gt;" style="text;html=1;align=center;verticalAlign=middle;whiteSpace=wrap;rounded=0;" vertex="1" parent="1">
          <mxGeometry x="760" y="380" width="80" height="20" as="geometry" />
        </mxCell>
        <mxCell id="32dZPm41bgBuHQjWJqPg-200" value="&lt;div&gt;&lt;b&gt;o&lt;/b&gt;&lt;/div&gt;" style="text;html=1;align=center;verticalAlign=middle;whiteSpace=wrap;rounded=0;" vertex="1" parent="1">
          <mxGeometry x="840" y="360" width="80" height="20" as="geometry" />
        </mxCell>
        <mxCell id="32dZPm41bgBuHQjWJqPg-201" value="&lt;div&gt;&lt;b&gt;o&lt;/b&gt;&lt;/div&gt;" style="text;html=1;align=center;verticalAlign=middle;whiteSpace=wrap;rounded=0;" vertex="1" parent="1">
          <mxGeometry x="840" y="400" width="80" height="20" as="geometry" />
        </mxCell>
        <mxCell id="32dZPm41bgBuHQjWJqPg-202" value="&lt;div&gt;&lt;b&gt;o&lt;/b&gt;&lt;/div&gt;" style="text;html=1;align=center;verticalAlign=middle;whiteSpace=wrap;rounded=0;" vertex="1" parent="1">
          <mxGeometry x="840" y="420" width="80" height="20" as="geometry" />
        </mxCell>
        <mxCell id="32dZPm41bgBuHQjWJqPg-203" value="&lt;div&gt;&lt;b&gt;o&lt;/b&gt;&lt;/div&gt;" style="text;html=1;align=center;verticalAlign=middle;whiteSpace=wrap;rounded=0;" vertex="1" parent="1">
          <mxGeometry x="760" y="460" width="80" height="20" as="geometry" />
        </mxCell>
        <mxCell id="32dZPm41bgBuHQjWJqPg-204" value="&lt;div&gt;&lt;b&gt;o&lt;/b&gt;&lt;/div&gt;" style="text;html=1;align=center;verticalAlign=middle;whiteSpace=wrap;rounded=0;" vertex="1" parent="1">
          <mxGeometry x="1000" y="440" width="80" height="20" as="geometry" />
        </mxCell>
        <mxCell id="32dZPm41bgBuHQjWJqPg-205" value="&lt;div&gt;&lt;b&gt;o&lt;/b&gt;&lt;/div&gt;" style="text;html=1;align=center;verticalAlign=middle;whiteSpace=wrap;rounded=0;" vertex="1" parent="1">
          <mxGeometry x="1000" y="480" width="80" height="20" as="geometry" />
        </mxCell>
        <mxCell id="32dZPm41bgBuHQjWJqPg-206" value="&lt;div&gt;&lt;b&gt;o&lt;/b&gt;&lt;/div&gt;" style="text;html=1;align=center;verticalAlign=middle;whiteSpace=wrap;rounded=0;" vertex="1" parent="1">
          <mxGeometry x="1000" y="500" width="80" height="20" as="geometry" />
        </mxCell>
        <mxCell id="32dZPm41bgBuHQjWJqPg-207" value="&lt;div&gt;&lt;b&gt;o&lt;/b&gt;&lt;/div&gt;" style="text;html=1;align=center;verticalAlign=middle;whiteSpace=wrap;rounded=0;" vertex="1" parent="1">
          <mxGeometry x="920" y="520" width="80" height="20" as="geometry" />
        </mxCell>
        <mxCell id="32dZPm41bgBuHQjWJqPg-208" value="&lt;div&gt;&lt;b&gt;o&lt;/b&gt;&lt;/div&gt;" style="text;html=1;align=center;verticalAlign=middle;whiteSpace=wrap;rounded=0;" vertex="1" parent="1">
          <mxGeometry x="920" y="560" width="80" height="20" as="geometry" />
        </mxCell>
        <mxCell id="32dZPm41bgBuHQjWJqPg-209" value="&lt;div&gt;&lt;b&gt;o&lt;/b&gt;&lt;/div&gt;" style="text;html=1;align=center;verticalAlign=middle;whiteSpace=wrap;rounded=0;" vertex="1" parent="1">
          <mxGeometry x="920" y="580" width="80" height="20" as="geometry" />
        </mxCell>
        <mxCell id="32dZPm41bgBuHQjWJqPg-210" value="&lt;div&gt;&lt;b&gt;o&lt;/b&gt;&lt;/div&gt;" style="text;html=1;align=center;verticalAlign=middle;whiteSpace=wrap;rounded=0;" vertex="1" parent="1">
          <mxGeometry x="760" y="540" width="80" height="20" as="geometry" />
        </mxCell>
        <mxCell id="32dZPm41bgBuHQjWJqPg-211" value="&lt;div&gt;&lt;font color=&quot;#999999&quot;&gt;&lt;b&gt;x&lt;/b&gt;&lt;/font&gt;&lt;/div&gt;" style="text;html=1;align=center;verticalAlign=middle;whiteSpace=wrap;rounded=0;" vertex="1" parent="1">
          <mxGeometry x="760" y="360" width="80" height="20" as="geometry" />
        </mxCell>
        <mxCell id="32dZPm41bgBuHQjWJqPg-212" value="&lt;div&gt;&lt;font color=&quot;#999999&quot;&gt;&lt;b&gt;x&lt;/b&gt;&lt;/font&gt;&lt;/div&gt;" style="text;html=1;align=center;verticalAlign=middle;whiteSpace=wrap;rounded=0;" vertex="1" parent="1">
          <mxGeometry x="760" y="400" width="80" height="20" as="geometry" />
        </mxCell>
        <mxCell id="32dZPm41bgBuHQjWJqPg-213" value="&lt;div&gt;&lt;font color=&quot;#999999&quot;&gt;&lt;b&gt;x&lt;/b&gt;&lt;/font&gt;&lt;/div&gt;" style="text;html=1;align=center;verticalAlign=middle;whiteSpace=wrap;rounded=0;" vertex="1" parent="1">
          <mxGeometry x="760" y="420" width="80" height="20" as="geometry" />
        </mxCell>
        <mxCell id="32dZPm41bgBuHQjWJqPg-214" value="&lt;div&gt;&lt;font color=&quot;#999999&quot;&gt;&lt;b&gt;x&lt;/b&gt;&lt;/font&gt;&lt;/div&gt;" style="text;html=1;align=center;verticalAlign=middle;whiteSpace=wrap;rounded=0;" vertex="1" parent="1">
          <mxGeometry x="760" y="440" width="80" height="20" as="geometry" />
        </mxCell>
        <mxCell id="32dZPm41bgBuHQjWJqPg-215" value="&lt;div&gt;&lt;font color=&quot;#999999&quot;&gt;&lt;b&gt;x&lt;/b&gt;&lt;/font&gt;&lt;/div&gt;" style="text;html=1;align=center;verticalAlign=middle;whiteSpace=wrap;rounded=0;" vertex="1" parent="1">
          <mxGeometry x="760" y="480" width="80" height="20" as="geometry" />
        </mxCell>
        <mxCell id="32dZPm41bgBuHQjWJqPg-216" value="&lt;div&gt;&lt;font color=&quot;#999999&quot;&gt;&lt;b&gt;x&lt;/b&gt;&lt;/font&gt;&lt;/div&gt;" style="text;html=1;align=center;verticalAlign=middle;whiteSpace=wrap;rounded=0;" vertex="1" parent="1">
          <mxGeometry x="760" y="500" width="80" height="20" as="geometry" />
        </mxCell>
        <mxCell id="32dZPm41bgBuHQjWJqPg-217" value="&lt;div&gt;&lt;font color=&quot;#999999&quot;&gt;&lt;b&gt;x&lt;/b&gt;&lt;/font&gt;&lt;/div&gt;" style="text;html=1;align=center;verticalAlign=middle;whiteSpace=wrap;rounded=0;" vertex="1" parent="1">
          <mxGeometry x="840" y="440" width="80" height="20" as="geometry" />
        </mxCell>
        <mxCell id="32dZPm41bgBuHQjWJqPg-219" value="&lt;div&gt;&lt;font color=&quot;#999999&quot;&gt;&lt;b&gt;x&lt;/b&gt;&lt;/font&gt;&lt;/div&gt;" style="text;html=1;align=center;verticalAlign=middle;whiteSpace=wrap;rounded=0;" vertex="1" parent="1">
          <mxGeometry x="840" y="440" width="80" height="20" as="geometry" />
        </mxCell>
        <mxCell id="32dZPm41bgBuHQjWJqPg-220" value="&lt;div&gt;&lt;font color=&quot;#999999&quot;&gt;&lt;b&gt;x&lt;/b&gt;&lt;/font&gt;&lt;/div&gt;" style="text;html=1;align=center;verticalAlign=middle;whiteSpace=wrap;rounded=0;" vertex="1" parent="1">
          <mxGeometry x="840" y="480" width="80" height="20" as="geometry" />
        </mxCell>
        <mxCell id="32dZPm41bgBuHQjWJqPg-221" value="&lt;div&gt;&lt;font color=&quot;#999999&quot;&gt;&lt;b&gt;x&lt;/b&gt;&lt;/font&gt;&lt;/div&gt;" style="text;html=1;align=center;verticalAlign=middle;whiteSpace=wrap;rounded=0;" vertex="1" parent="1">
          <mxGeometry x="840" y="500" width="80" height="20" as="geometry" />
        </mxCell>
        <mxCell id="32dZPm41bgBuHQjWJqPg-222" value="&lt;div&gt;&lt;font color=&quot;#999999&quot;&gt;&lt;b&gt;x&lt;/b&gt;&lt;/font&gt;&lt;/div&gt;" style="text;html=1;align=center;verticalAlign=middle;whiteSpace=wrap;rounded=0;" vertex="1" parent="1">
          <mxGeometry x="920" y="440" width="80" height="20" as="geometry" />
        </mxCell>
        <mxCell id="32dZPm41bgBuHQjWJqPg-224" value="&lt;div&gt;&lt;font color=&quot;#999999&quot;&gt;&lt;b&gt;x&lt;/b&gt;&lt;/font&gt;&lt;/div&gt;" style="text;html=1;align=center;verticalAlign=middle;whiteSpace=wrap;rounded=0;" vertex="1" parent="1">
          <mxGeometry x="920" y="480" width="80" height="20" as="geometry" />
        </mxCell>
        <mxCell id="32dZPm41bgBuHQjWJqPg-225" value="&lt;div&gt;&lt;font color=&quot;#999999&quot;&gt;&lt;b&gt;x&lt;/b&gt;&lt;/font&gt;&lt;/div&gt;" style="text;html=1;align=center;verticalAlign=middle;whiteSpace=wrap;rounded=0;" vertex="1" parent="1">
          <mxGeometry x="920" y="500" width="80" height="20" as="geometry" />
        </mxCell>
        <mxCell id="32dZPm41bgBuHQjWJqPg-226" value="&lt;div&gt;&lt;font color=&quot;#999999&quot;&gt;&lt;b&gt;x&lt;/b&gt;&lt;/font&gt;&lt;/div&gt;" style="text;html=1;align=center;verticalAlign=middle;whiteSpace=wrap;rounded=0;" vertex="1" parent="1">
          <mxGeometry x="760" y="520" width="80" height="20" as="geometry" />
        </mxCell>
        <mxCell id="32dZPm41bgBuHQjWJqPg-227" value="&lt;div&gt;&lt;font color=&quot;#999999&quot;&gt;&lt;b&gt;x&lt;/b&gt;&lt;/font&gt;&lt;/div&gt;" style="text;html=1;align=center;verticalAlign=middle;whiteSpace=wrap;rounded=0;" vertex="1" parent="1">
          <mxGeometry x="840" y="520" width="80" height="20" as="geometry" />
        </mxCell>
        <mxCell id="32dZPm41bgBuHQjWJqPg-228" value="&lt;div&gt;&lt;font color=&quot;#999999&quot;&gt;&lt;b&gt;x&lt;/b&gt;&lt;/font&gt;&lt;/div&gt;" style="text;html=1;align=center;verticalAlign=middle;whiteSpace=wrap;rounded=0;" vertex="1" parent="1">
          <mxGeometry x="760" y="560" width="80" height="20" as="geometry" />
        </mxCell>
        <mxCell id="32dZPm41bgBuHQjWJqPg-229" value="&lt;div&gt;&lt;font color=&quot;#999999&quot;&gt;&lt;b&gt;x&lt;/b&gt;&lt;/font&gt;&lt;/div&gt;" style="text;html=1;align=center;verticalAlign=middle;whiteSpace=wrap;rounded=0;" vertex="1" parent="1">
          <mxGeometry x="760" y="580" width="80" height="20" as="geometry" />
        </mxCell>
        <mxCell id="32dZPm41bgBuHQjWJqPg-230" value="&lt;div&gt;&lt;font color=&quot;#999999&quot;&gt;&lt;b&gt;x&lt;/b&gt;&lt;/font&gt;&lt;/div&gt;" style="text;html=1;align=center;verticalAlign=middle;whiteSpace=wrap;rounded=0;" vertex="1" parent="1">
          <mxGeometry x="840" y="560" width="80" height="20" as="geometry" />
        </mxCell>
        <mxCell id="32dZPm41bgBuHQjWJqPg-231" value="&lt;div&gt;&lt;font color=&quot;#999999&quot;&gt;&lt;b&gt;x&lt;/b&gt;&lt;/font&gt;&lt;/div&gt;" style="text;html=1;align=center;verticalAlign=middle;whiteSpace=wrap;rounded=0;" vertex="1" parent="1">
          <mxGeometry x="840" y="580" width="80" height="20" as="geometry" />
        </mxCell>
        <mxCell id="32dZPm41bgBuHQjWJqPg-234" value="&lt;div&gt;&lt;font color=&quot;#666666&quot;&gt;&lt;b&gt;o&lt;/b&gt;&lt;/font&gt;&lt;/div&gt;" style="text;html=1;align=center;verticalAlign=middle;whiteSpace=wrap;rounded=0;" vertex="1" parent="1">
          <mxGeometry x="840" y="460" width="80" height="20" as="geometry" />
        </mxCell>
        <mxCell id="32dZPm41bgBuHQjWJqPg-235" value="&lt;div&gt;&lt;font color=&quot;#666666&quot;&gt;&lt;b&gt;o&lt;/b&gt;&lt;/font&gt;&lt;/div&gt;" style="text;html=1;align=center;verticalAlign=middle;whiteSpace=wrap;rounded=0;" vertex="1" parent="1">
          <mxGeometry x="840" y="540" width="80" height="20" as="geometry" />
        </mxCell>
        <mxCell id="32dZPm41bgBuHQjWJqPg-236" value="&lt;div&gt;&lt;font color=&quot;#666666&quot;&gt;&lt;b&gt;o&lt;/b&gt;&lt;/font&gt;&lt;/div&gt;" style="text;html=1;align=center;verticalAlign=middle;whiteSpace=wrap;rounded=0;" vertex="1" parent="1">
          <mxGeometry x="840" y="380" width="80" height="20" as="geometry" />
        </mxCell>
        <mxCell id="32dZPm41bgBuHQjWJqPg-237" value="&lt;div&gt;&lt;font color=&quot;#666666&quot;&gt;&lt;b&gt;o&lt;/b&gt;&lt;/font&gt;&lt;/div&gt;" style="text;html=1;align=center;verticalAlign=middle;whiteSpace=wrap;rounded=0;" vertex="1" parent="1">
          <mxGeometry x="920" y="360" width="80" height="20" as="geometry" />
        </mxCell>
        <mxCell id="32dZPm41bgBuHQjWJqPg-238" value="&lt;div&gt;&lt;font color=&quot;#666666&quot;&gt;&lt;b&gt;o&lt;/b&gt;&lt;/font&gt;&lt;/div&gt;" style="text;html=1;align=center;verticalAlign=middle;whiteSpace=wrap;rounded=0;" vertex="1" parent="1">
          <mxGeometry x="920" y="380" width="80" height="20" as="geometry" />
        </mxCell>
        <mxCell id="32dZPm41bgBuHQjWJqPg-239" value="&lt;div&gt;&lt;font color=&quot;#666666&quot;&gt;&lt;b&gt;o&lt;/b&gt;&lt;/font&gt;&lt;/div&gt;" style="text;html=1;align=center;verticalAlign=middle;whiteSpace=wrap;rounded=0;" vertex="1" parent="1">
          <mxGeometry x="920" y="400" width="80" height="20" as="geometry" />
        </mxCell>
        <mxCell id="32dZPm41bgBuHQjWJqPg-240" value="&lt;div&gt;&lt;font color=&quot;#666666&quot;&gt;&lt;b&gt;o&lt;/b&gt;&lt;/font&gt;&lt;/div&gt;" style="text;html=1;align=center;verticalAlign=middle;whiteSpace=wrap;rounded=0;" vertex="1" parent="1">
          <mxGeometry x="920" y="420" width="80" height="20" as="geometry" />
        </mxCell>
        <mxCell id="32dZPm41bgBuHQjWJqPg-241" value="&lt;div&gt;&lt;font color=&quot;#666666&quot;&gt;&lt;b&gt;o&lt;/b&gt;&lt;/font&gt;&lt;/div&gt;" style="text;html=1;align=center;verticalAlign=middle;whiteSpace=wrap;rounded=0;" vertex="1" parent="1">
          <mxGeometry x="920" y="460" width="80" height="20" as="geometry" />
        </mxCell>
        <mxCell id="32dZPm41bgBuHQjWJqPg-242" value="&lt;div&gt;&lt;font color=&quot;#666666&quot;&gt;&lt;b&gt;o&lt;/b&gt;&lt;/font&gt;&lt;/div&gt;" style="text;html=1;align=center;verticalAlign=middle;whiteSpace=wrap;rounded=0;" vertex="1" parent="1">
          <mxGeometry x="1000" y="460" width="80" height="20" as="geometry" />
        </mxCell>
        <mxCell id="32dZPm41bgBuHQjWJqPg-243" value="&lt;div&gt;&lt;font color=&quot;#666666&quot;&gt;&lt;b&gt;o&lt;/b&gt;&lt;/font&gt;&lt;/div&gt;" style="text;html=1;align=center;verticalAlign=middle;whiteSpace=wrap;rounded=0;" vertex="1" parent="1">
          <mxGeometry x="920" y="540" width="80" height="20" as="geometry" />
        </mxCell>
        <mxCell id="32dZPm41bgBuHQjWJqPg-244" value="&lt;div&gt;&lt;font color=&quot;#666666&quot;&gt;&lt;b&gt;o&lt;/b&gt;&lt;/font&gt;&lt;/div&gt;" style="text;html=1;align=center;verticalAlign=middle;whiteSpace=wrap;rounded=0;" vertex="1" parent="1">
          <mxGeometry x="1000" y="520" width="80" height="20" as="geometry" />
        </mxCell>
        <mxCell id="32dZPm41bgBuHQjWJqPg-245" value="&lt;div&gt;&lt;font color=&quot;#666666&quot;&gt;&lt;b&gt;o&lt;/b&gt;&lt;/font&gt;&lt;/div&gt;" style="text;html=1;align=center;verticalAlign=middle;whiteSpace=wrap;rounded=0;" vertex="1" parent="1">
          <mxGeometry x="1000" y="540" width="80" height="20" as="geometry" />
        </mxCell>
        <mxCell id="32dZPm41bgBuHQjWJqPg-246" value="&lt;div&gt;&lt;font color=&quot;#666666&quot;&gt;&lt;b&gt;o&lt;/b&gt;&lt;/font&gt;&lt;/div&gt;" style="text;html=1;align=center;verticalAlign=middle;whiteSpace=wrap;rounded=0;" vertex="1" parent="1">
          <mxGeometry x="1000" y="560" width="80" height="20" as="geometry" />
        </mxCell>
        <mxCell id="32dZPm41bgBuHQjWJqPg-247" value="&lt;div&gt;&lt;font color=&quot;#666666&quot;&gt;&lt;b&gt;o&lt;/b&gt;&lt;/font&gt;&lt;/div&gt;" style="text;html=1;align=center;verticalAlign=middle;whiteSpace=wrap;rounded=0;" vertex="1" parent="1">
          <mxGeometry x="1000" y="580" width="80" height="20" as="geometry" />
        </mxCell>
        <mxCell id="32dZPm41bgBuHQjWJqPg-248" value="&lt;div&gt;&lt;font color=&quot;#666666&quot;&gt;&lt;b&gt;o&lt;/b&gt;&lt;/font&gt;&lt;/div&gt;" style="text;html=1;align=center;verticalAlign=middle;whiteSpace=wrap;rounded=0;" vertex="1" parent="1">
          <mxGeometry x="1000" y="420" width="80" height="20" as="geometry" />
        </mxCell>
        <mxCell id="32dZPm41bgBuHQjWJqPg-249" value="&lt;div&gt;&lt;font color=&quot;#666666&quot;&gt;&lt;b&gt;o&lt;/b&gt;&lt;/font&gt;&lt;/div&gt;" style="text;html=1;align=center;verticalAlign=middle;whiteSpace=wrap;rounded=0;" vertex="1" parent="1">
          <mxGeometry x="1000" y="400" width="80" height="20" as="geometry" />
        </mxCell>
        <mxCell id="32dZPm41bgBuHQjWJqPg-250" value="&lt;div&gt;&lt;font color=&quot;#666666&quot;&gt;&lt;b&gt;o&lt;/b&gt;&lt;/font&gt;&lt;/div&gt;" style="text;html=1;align=center;verticalAlign=middle;whiteSpace=wrap;rounded=0;" vertex="1" parent="1">
          <mxGeometry x="1000" y="380" width="80" height="20" as="geometry" />
        </mxCell>
        <mxCell id="32dZPm41bgBuHQjWJqPg-251" value="&lt;div&gt;&lt;font color=&quot;#666666&quot;&gt;&lt;b&gt;o&lt;/b&gt;&lt;/font&gt;&lt;/div&gt;" style="text;html=1;align=center;verticalAlign=middle;whiteSpace=wrap;rounded=0;" vertex="1" parent="1">
          <mxGeometry x="1000" y="360" width="80" height="20" as="geometry" />
        </mxCell>
      </root>
    </mxGraphModel>
  </diagram>
</mxfile>
